<?xml version="1.0" encoding="UTF-8"?>
<svg width="512" height="512" viewBox="0 0 512 512" fill="none" xmlns="http://www.w3.org/2000/svg">
  <!-- 背景 -->
  <rect width="512" height="512" rx="80" fill="#4285F4"/>
  <rect width="512" height="512" rx="80" fill="url(#paint0_linear)"/>
  
  <!-- 人体姿态骨架 -->
  <g stroke="#FFFFFF" stroke-width="12" stroke-linecap="round" stroke-linejoin="round">
    <!-- 头部 -->
    <circle cx="256" cy="120" r="40" fill="#FFFFFF" opacity="0.9"/>
    
    <!-- 躯干 -->
    <line x1="256" y1="160" x2="256" y2="280" />
    
    <!-- 肩膀 -->
    <line x1="256" y1="180" x2="196" y2="210" />
    <line x1="256" y1="180" x2="316" y2="210" />
    
    <!-- 手臂 - 动态姿势 -->
    <line x1="196" y1="210" x2="166" y2="280" />
    <line x1="316" y1="210" x2="346" y2="280" />
    
    <!-- 臀部 -->
    <line x1="256" y1="280" x2="216" y2="300" />
    <line x1="256" y1="280" x2="296" y2="300" />
    
    <!-- 腿部 - 跑步姿势 -->
    <line x1="216" y1="300" x2="186" y2="380" />
    <line x1="296" y1="300" x2="326" y2="380" />
    
    <!-- 脚部 -->
    <line x1="186" y1="380" x2="156" y2="430" />
    <line x1="326" y1="380" x2="356" y2="430" />
    
    <!-- 关节点 -->
    <circle cx="196" cy="210" r="8" fill="#FFFFFF"/>
    <circle cx="316" cy="210" r="8" fill="#FFFFFF"/>
    <circle cx="166" cy="280" r="8" fill="#FFFFFF"/>
    <circle cx="346" cy="280" r="8" fill="#FFFFFF"/>
    <circle cx="216" cy="300" r="8" fill="#FFFFFF"/>
    <circle cx="296" cy="300" r="8" fill="#FFFFFF"/>
    <circle cx="186" cy="380" r="8" fill="#FFFFFF"/>
    <circle cx="326" cy="380" r="8" fill="#FFFFFF"/>
    <circle cx="156" cy="430" r="8" fill="#FFFFFF"/>
    <circle cx="356" cy="430" r="8" fill="#FFFFFF"/>
  </g>
  
  <!-- 运动轨迹 -->
  <path d="M120 360 Q 256 320 400 360" stroke="#FFFFFF" stroke-width="8" stroke-dasharray="15,10" opacity="0.7"/>
  
  <!-- 摄像头图标 -->
  <g transform="translate(410, 100) scale(0.8)">
    <rect x="-30" y="-30" width="60" height="60" rx="10" fill="#FFFFFF" opacity="0.9"/>
    <circle cx="0" cy="0" r="15" fill="#4285F4"/>
    <circle cx="0" cy="0" r="8" fill="#FFFFFF"/>
  </g>
  
  <!-- 渐变定义 -->
  <defs>
    <linearGradient id="paint0_linear" x1="0" y1="0" x2="512" y2="512" gradientUnits="userSpaceOnUse">
      <stop offset="0" stop-color="#4285F4"/>
      <stop offset="0.5" stop-color="#34A853"/>
      <stop offset="1" stop-color="#FBBC05"/>
    </linearGradient>
  </defs>
</svg>
